<svg enable-background="new 0 0 511.999 511.999" viewBox="0 0 511.999 511.999" xmlns="http://www.w3.org/2000/svg"><path d="m391.701 215.5c-3.243 0-6.482.65-9.072 4.533-6.482 8.429-24.621 57.672-23.977 67.388.001 7.415 10.13 10.451 16.85-1.294 5.183-9.073 21.382-53.133 22.028-64.145 0-2.594-.647-6.482-5.829-6.482z"/><path d="m394.291 174.679c-22.025 0-36.931 8.422-47.298 20.732-9.856-16.419-25.294-21.378-45.356-21.378-18.145 0-32.4 5.828-42.767 14.251-5.832-8.422-18.144-14.251-33.693-14.251-20.089.001-42.117 2.591-55.078 23.973-.65-7.776-1.294-11.661-5.183-16.2-5.183-5.182-13.605-7.126-22.027-7.126-14.256 0-25.923 6.476-33.694 20.088-11.666 18.138-39.526 79.693-38.877 108.855 0 19.439 12.961 33.044 35.639 33.693 18.138.65 32.394-4.533 41.466-13.606 18.611 21.708 60.287 16.652 77.106-1.3 19.386 22.366 65.001 22.113 90.714-10.367 6.478 18.146 23.972 25.923 42.767 25.923 41.464 0 59.611-28.511 74.516-73.222 17.821-47.577 11.863-90.065-38.235-90.065zm-274.73 112.742c21.383-3.238 26.566 3.889 25.917 11.667-1.944 21.377-21.384 25.917-38.878 25.267-12.31 0-23.321-5.828-23.321-20.082-.65-25.273 24.622-83.588 36.934-102.377 5.826-9.072 12.305-13.61 23.321-13.61 10.366 0 12.961 5.188 12.311 11.016-.002 16.849-27.212 68.036-36.284 88.119zm69.328-19.438c-1.295 3.888-3.883 11.666-5.827 20.088 8.774-1.593 38.226-8.581 38.226 10.366 0 20.733-23.326 26.567-38.876 26.567-17.494 0-32.394-9.718-32.394-28.512 0-22.677 11.661-56.37 23.326-78.404 13.606-27.86 27.861-31.744 52.482-31.744 10.366.001 23.321 5.184 23.321 14.9 0 14.256-12.311 19.439-23.971 20.089-5.184.65-12.961.65-17.495.65 0 0-3.888 5.828-7.776 16.195 21.382-2.595 31.105 1.944 27.217 14.904-5.185 16.845-20.088 18.14-38.233 14.901zm107.565-53.133c-5.833 0-9.723 3.89-12.317 7.778-6.478 9.072-20.083 44.71-22.027 58.966-1.944 10.367 2.589 12.306 7.127 12.306 7.777 0 16.2-8.423 19.439-21.377 0 0-14.905-.65-11.017-12.962 3.889-12.961 11.667-15.549 23.978-16.199 23.972-.645 21.383 16.85 19.433 26.566-6.478 30.455-27.861 55.077-58.961 55.077-21.382 0-34.343-11.662-34.343-33.044 0-15.55 7.776-39.526 13.609-53.782 12.955-29.806 26.566-51.188 60.905-51.188 20.738 0 36.933 7.777 34.344 27.217-1.944 14.256-9.072 22.027-21.383 23.321-3.889 0-18.788 0-13.605-14.25 1.295-4.539 2.59-8.429-5.182-8.429zm130.236 25.273c-3.889 18.144-12.312 39.526-20.733 55.076-14.905 26.567-32.399 29.806-47.305 29.806-15.55 0-33.044-5.833-33.044-29.806 0-16.851 7.127-40.821 13.605-56.37 11.019-28.511 22.034-51.838 57.021-51.189 40.822-.001 33.694 36.934 30.456 52.483z"/><path d="m477.471 0h-203.97c-4.143 0-7.5 3.358-7.5 7.5 0 4.143 3.357 7.5 7.5 7.5h203.97c10.768 0 19.526 8.76 19.526 19.526v194.509c0 4.143 3.357 7.5 7.5 7.5 4.142 0 7.5-3.357 7.5-7.5v-194.508c.002-19.038-15.488-34.527-34.526-34.527z"/><path d="m504.499 256.538c-4.143 0-7.5 3.357-7.5 7.5v213.434c0 10.768-8.76 19.526-19.526 19.526h-442.945c-10.768 0-19.526-8.76-19.526-19.526v-442.945c0-10.767 8.76-19.526 19.526-19.526h203.97c4.143 0 7.5-3.357 7.5-7.5 0-4.142-3.357-7.5-7.5-7.5h-203.97c-19.038-.001-34.527 15.488-34.527 34.526v442.945c0 19.038 15.489 34.527 34.527 34.527h442.943c19.038 0 34.527-15.489 34.527-34.527v-213.434c.001-4.142-3.357-7.5-7.499-7.5z"/></svg>